<svg width="137" height="54" viewBox="0 0 137 54" fill="none" xmlns="http://www.w3.org/2000/svg">
<rect width="23.544" height="54" fill="#D9411A"/>
<path d="M5.45451 42.043H20.4296V44.4777H5.45451V51.0159H3.01977V35.5065H5.45451V42.0447V42.043Z" fill="white"/>
<path d="M20.4537 21.0865C15.771 22.4543 13.0821 26.5802 12.4319 31.2871H20.4537V33.6977H9.8588C9.92796 27.0436 12.5944 23.312 15.2367 21.1781H3.04221V18.7676H20.452V21.0865H20.4537ZM3.04394 31.2871H9.37289C9.25703 32.0515 9.21034 32.84 9.21034 33.6977H3.04394V31.2871Z" fill="white"/>
<path d="M17.9965 13.8082V2.95909H20.4313V16.2187H3.04398V2.95909H5.47871V13.3223C7.10072 12.4421 9.55967 10.0541 9.16541 3.49341H11.6002C11.8786 8.91798 10.3949 12.0254 8.70198 13.8099H17.9983L17.9965 13.8082Z" fill="white"/>
<path d="M47.4607 8.96647C47.4607 11.441 46.0773 13.2601 43.9676 14.3513C47.1338 15.4424 49.3887 18.4634 49.3887 21.991C49.3887 26.3936 45.8231 29.814 41.4205 29.814H26.8311V2.52686H41.0573C44.5867 2.52686 47.4607 5.40082 47.4607 8.96647ZM30.6509 14.5346L40.5109 11.6606C41.8199 11.2975 43.7134 10.5695 43.7134 8.9682C43.7134 7.5122 42.5133 6.34843 41.0573 6.34843H30.6509V14.5346ZM30.6509 26.2137H41.4205C43.7134 26.2137 45.6415 24.2856 45.6415 21.9927C45.6415 17.8443 42.3301 16.1341 38.5465 16.3174C35.6362 16.4263 32.47 17.9186 30.6509 18.4997V26.2137Z" fill="white"/>
<path d="M76.7847 2.49056V17.9896C76.7847 24.7197 71.3273 30.1788 64.5972 30.1788C57.8671 30.1788 52.4079 24.7214 52.4079 17.9896V2.49056H56.2278V17.9896C56.2278 22.61 60.0113 26.4299 64.5955 26.4299C69.1796 26.4299 73.0358 22.61 73.0358 17.9896V2.49056H76.783H76.7847Z" fill="white"/>
<path d="M84.7149 2.52686V29.814H80.9677V2.52686H84.7149Z" fill="white"/>
<path d="M92.6814 2.52686V26.103H109.054V29.8503H88.9705V2.52686H92.6814Z" fill="white"/>
<path d="M126.844 2.52686C129.099 2.52686 131.174 3.40011 132.628 4.89243C137.904 9.9504 136.777 29.8157 123.423 29.8157H112.835V2.52858H126.842L126.844 2.52686ZM116.584 6.23776V26.103H123.425C133.104 26.103 132.886 10.3118 129.937 7.47416C129.173 6.70984 128.046 6.23776 126.846 6.23776H116.586H116.584Z" fill="white"/>
<path d="M42.1918 43.5889C42.1918 48.1575 38.4705 51.8788 33.9244 51.8788C29.3783 51.8788 25.6345 48.1575 25.6345 43.5889C25.6345 39.0203 29.3558 35.3215 33.9244 35.3215C35.9268 35.3215 37.8843 36.0617 39.3853 37.388L37.8843 39.0843C36.7742 38.1056 35.3821 37.5834 33.9244 37.5834C30.5957 37.5834 27.9188 40.281 27.9188 43.5889C27.9188 46.8969 30.5957 49.6153 33.9244 49.6153C37.2532 49.6153 39.93 46.9177 39.93 43.5889H42.1936H42.1918Z" fill="white"/>
<path d="M60.5562 43.5458C60.5562 48.1801 56.8142 51.9222 52.1799 51.9222C47.5456 51.9222 43.8035 48.1801 43.8035 43.5458C43.8035 38.9115 47.5456 35.1695 52.1799 35.1695C56.8142 35.1695 60.5562 38.934 60.5562 43.5458ZM46.0878 43.5458C46.0878 46.9403 48.8079 49.6603 52.1799 49.6603C55.5518 49.6603 58.3151 46.9403 58.3151 43.5458C58.3151 40.1513 55.5743 37.4538 52.1799 37.4538C48.7854 37.4538 46.0878 40.1738 46.0878 43.5458Z" fill="white"/>
<path d="M77.1135 35.408V44.6767C77.1135 48.7023 73.8505 51.9653 69.8249 51.9653C65.7992 51.9653 62.5362 48.7023 62.5362 44.6767V35.408H64.8205V44.6767C64.8205 47.44 67.0841 49.7242 69.8249 49.7242C72.5657 49.7242 74.8725 47.44 74.8725 44.6767V35.408H77.1135Z" fill="white"/>
<path d="M93.4096 35.4306V51.77H90.8642C86.2299 50.6823 83.3801 46.8746 81.7045 43.2415V51.77H79.4634V35.4306H81.7045C81.9224 36.8226 83.707 47.5057 91.1685 49.5289V35.4306H93.4096Z" fill="white"/>
<path d="M107.639 39.2592V40.4558H105.355V39.2592C105.355 38.3444 104.594 37.67 103.723 37.67H99.4793C98.6095 37.67 97.8694 38.3444 97.8694 39.2592V40.2172C97.8694 41.1752 99.0435 41.6317 99.8061 41.8703L104.288 43.2191C105.941 43.7188 107.508 44.8083 107.639 46.7V48.1353C107.51 50.1585 105.746 51.7476 103.723 51.7476H99.4793C97.3679 51.7476 95.6058 50.0513 95.6058 47.9191V46.7H97.8694V47.9191C97.8694 48.8114 98.6095 49.5065 99.4793 49.5065H103.723C104.593 49.5065 105.355 48.8097 105.355 47.9191V46.9404C105.355 45.9824 104.181 45.5484 103.441 45.308C101.961 44.8722 100.482 44.459 99.0245 43.9817C97.4371 43.482 95.6093 42.3061 95.6093 40.4351V39.043C95.6093 37.0406 97.5668 35.41 99.4827 35.41H103.726C105.858 35.41 107.643 37.1063 107.643 39.2609L107.639 39.2592Z" fill="white"/>
<path d="M112.122 49.4633H122.305V51.7476H109.86V35.4289H122.305V37.7132H112.58C113.406 39.2367 115.648 41.5417 121.805 41.1734V43.4577C116.714 43.7188 113.799 42.3268 112.123 40.7376V49.4633H112.122Z" fill="white"/>
<path d="M126.721 35.4306V49.5289H136.512V51.77H124.501V35.4306H126.72H126.721Z" fill="white"/>
</svg>
